<svg width="8" height="13" viewBox="0 0 8 13" fill="none" xmlns="http://www.w3.org/2000/svg">
<path d="M0.307523 1.60182C0.128962 1.42066 0.0297609 1.1823 0.039681 0.934394C0.0396811 0.686492 0.138882 0.457658 0.327363 0.276499C0.505925 0.104874 0.753926 -7.27498e-06 1.01185 -7.25244e-06C1.26977 -7.22989e-06 1.51777 0.0858054 1.70625 0.257431L7.32102 5.65407C7.4103 5.73989 7.47974 5.84477 7.52934 5.95918C7.57894 6.0736 7.6087 6.19755 7.6087 6.3215C7.6087 6.44545 7.57894 6.56941 7.52934 6.69336C7.47974 6.80777 7.4103 6.91266 7.32102 6.99847L1.70625 12.3951C1.61697 12.4809 1.50785 12.5572 1.38881 12.6049C1.25985 12.6525 1.13089 12.6812 1.00193 12.6812C0.872967 12.6812 0.734085 12.6621 0.615044 12.6144C0.496004 12.5667 0.386883 12.4905 0.287682 12.4046C0.198401 12.3188 0.128961 12.2044 0.0793605 12.09C0.0198398 11.9756 7.25189e-08 11.8516 8.41886e-08 11.7181C9.50248e-08 11.5942 0.02976 11.4702 0.0793606 11.3558C0.128961 11.2414 0.208322 11.1365 0.307522 11.0412L5.21796 6.3215L4.28547 5.43478L0.307523 1.60182Z" fill="#181725"/>
</svg>
